<svg width="11" height="11" viewBox="0 0 11 11" fill="none" xmlns="http://www.w3.org/2000/svg">
<g filter="url(#filter0_i_368_4783)">
<path d="M3.60626 8.50585C3.03534 8.50585 2.57342 8.97296 2.57342 9.54387C2.57342 10.1148 3.03534 10.5819 3.60626 10.5819C4.17717 10.5819 4.64428 10.1148 4.64428 9.54387C4.64428 8.97296 4.17717 8.50585 3.60626 8.50585ZM8.79637 8.50585C8.22546 8.50585 7.76354 8.97296 7.76354 9.54387C7.76354 10.1148 8.22546 10.5819 8.79637 10.5819C9.36729 10.5819 9.8344 10.1148 9.8344 9.54387C9.8344 8.97296 9.36729 8.50585 8.79637 8.50585ZM4.17717 5.91079H8.04381C8.43307 5.91079 8.77561 5.69799 8.95208 5.37621L10.6337 2.18947C10.7634 1.94035 10.6752 1.62894 10.4261 1.494C10.1718 1.35387 9.85516 1.45248 9.72021 1.70679L8.04381 4.87277H4.40035L2.18936 0.20166H1.0112C0.725743 0.20166 0.492188 0.435215 0.492188 0.720672C0.492188 1.00613 0.725743 1.23968 1.0112 1.23968H1.53021L3.39865 5.17898L2.69799 6.44537C2.31911 7.14085 2.81736 7.98684 3.60626 7.98684H9.31539C9.60084 7.98684 9.8344 7.75328 9.8344 7.46782C9.8344 7.18237 9.60084 6.94881 9.31539 6.94881H3.60626L4.17717 5.91079Z" fill="white"/>
</g>
<defs>
<filter id="filter0_i_368_4783" x="0.492188" y="0.20166" width="10.1992" height="10.3801" filterUnits="userSpaceOnUse" color-interpolation-filters="sRGB">
<feFlood flood-opacity="0" result="BackgroundImageFix"/>
<feBlend mode="normal" in="SourceGraphic" in2="BackgroundImageFix" result="shape"/>
<feColorMatrix in="SourceAlpha" type="matrix" values="0 0 0 0 0 0 0 0 0 0 0 0 0 0 0 0 0 0 127 0" result="hardAlpha"/>
<feOffset dx="0.415209" dy="0.415209"/>
<feComposite in2="hardAlpha" operator="arithmetic" k2="-1" k3="1"/>
<feColorMatrix type="matrix" values="0 0 0 0 0.12549 0 0 0 0 0.12549 0 0 0 0 0.12549 0 0 0 0.2 0"/>
<feBlend mode="normal" in2="shape" result="effect1_innerShadow_368_4783"/>
</filter>
</defs>
</svg>
